<svg xmlns="http://www.w3.org/2000/svg" viewBox="0 0 248.7 331.3"><style>:root { --primary : #ffffff; }</style><title>Network Logo</title><desc>Network Logo for GB</desc><path d="M0 301.9h11.2v9.9h5.2v-9.9h11.2v29.3H16.4v-10.9h-5.2v10.9H0zm48.2 0h22.2v7.6h-11v3.1h10.2v7.6H59.4v3.4h11.4v7.6H48.2zm58.1 17.5H101l2.7-11.6 2.6 11.6zm-19.4 11.9h11.3l1.1-4.7h8.6l1 4.7h12.2l-9.4-29.4h-15l-9.8 29.4zm61.7-22.8h1.3c2.5 0 3.6.8 3.6 2.6 0 1.9-1.4 3-4.1 3h-.8v-5.6zm-11.2 22.7h11.2v-10.6h1c2.7 0 3 1.3 3.5 4.4l.3 2.2c.2 1.3.5 2.7.9 4.1h11.3c-.5-2.2-.9-3.9-1-5.2l-.4-3.1c-.5-4.2-1.5-6-5.5-6.7 3.9-1 5.8-3.3 5.8-6.8 0-5.9-3.8-7.4-12-7.4h-15.2v29.1zm55.2-9.4v.2c0 2 .9 2.9 2.8 2.9 1.7 0 2.8-.8 2.8-2.1 0-.9-.4-1.7-1.2-2-1.5-.7-4.2-1.2-7.7-2.3-4.8-1.5-7-3.8-7-7.9 0-5.7 4.7-9.2 13.4-9.2 7.9 0 12 2.9 12 8.1v.6h-9.8c-.1-1.7-.9-2.6-2.6-2.6-1.5 0-2.5.8-2.5 1.9 0 2 2.1 2 5.8 3 6.9 1.8 10.2 3.7 10.2 9 0 6.2-5 10.2-13.6 10.2-8.7 0-13.3-3.2-13.3-8.8 0-.3 0-.7.1-1.1h10.6zm56.1-12.1h-7.1v21.5h-11.5v-21.5h-7.2v-7.8h25.8zM0 0h100.8v89.2h47.1V0h100.8v264.2H147.9v-98.7h-47.1v98.7H0z" style="fill:var(--primary, #000);fill-opacity:var(--secondary, 1)"/></svg>