<svg xmlns="http://www.w3.org/2000/svg" viewBox="0 0 111.24 38.65"><style>:root { --primary : white; }</style><defs><style>.cls-1{fill:var(--primary, #1d1d1b);fill-opacity:var(--tertiary, 1)}</style></defs><title>The Independent Press Standards Organisation</title><desc>The Independent Press Standards Organisation (IPSO) is the independent regulator for the newspaper and magazine industry in the UK.</desc><path d="M106.75 19.15 111.24 5H32.3a19.33 19.33 0 1 0 .37 28.28h78.57Zm-105.66.17A18.24 18.24 0 0 1 31.73 6a18.58 18.58 0 0 1 2 2.23 18.23 18.23 0 0 1 0 22.28 20 20 0 0 1-1.68 1.9 18.23 18.23 0 0 1-31-13Zm32.66 12.85c.31-.34.6-.69.87-1a19.32 19.32 0 0 0 0-23.61c-.36-.46-.74-.91-1.14-1.33l-.07-.09h76.33l-4.14 13.05 4.14 13.05h-76Z" class="cls-1"/><path d="M50.66 24.18h-1.37l-2.67-3.84h-.47v3.84H45v-9.07h1.37a4.76 4.76 0 0 1 2.39.42A2.5 2.5 0 0 1 50 17.69a2.46 2.46 0 0 1-2.17 2.54Zm-4.51-4.78h.36c1.15 0 2.41-.21 2.41-1.66s-1.35-1.62-2.47-1.62h-.3ZM52.34 21.54A1.77 1.77 0 0 0 54 23.41a1.84 1.84 0 0 0 1.69-1.1l.91.52a2.93 2.93 0 0 1-2.6 1.54 2.73 2.73 0 0 1-2.76-3c0-1.73.92-3 2.74-3s2.63 1.32 2.63 3v.17Zm3.21-.82a1.51 1.51 0 0 0-1.55-1.4 1.61 1.61 0 0 0-1.6 1.4ZM64 24.07c0 1.93-.55 3.33-2.74 3.33a2.51 2.51 0 0 1-2.72-2.55h1.09a1.53 1.53 0 0 0 1.68 1.59c1.33 0 1.61-.92 1.61-2.07V23.3A2.33 2.33 0 0 1 61 24.37a2.77 2.77 0 0 1-2.7-3 2.76 2.76 0 0 1 2.65-2.95 2.28 2.28 0 0 1 2 1.13v-1H64Zm-1-2.71a1.85 1.85 0 0 0-1.83-2 1.87 1.87 0 0 0-1.78 2 1.82 1.82 0 1 0 3.61 0ZM67.17 18.55v3.11c0 .9.23 1.7 1.3 1.7s1.3-.8 1.3-1.7v-3.11h1.08v3.23c0 1.54-.72 2.59-2.38 2.59s-2.38-1.05-2.38-2.59v-3.23ZM74.15 24.18h-1.09V13.74h1.09ZM81.69 24.18H80.6v-.88a2.3 2.3 0 0 1-1.91 1.07 2.78 2.78 0 0 1-2.7-3 2.77 2.77 0 0 1 2.66-2.95 2.3 2.3 0 0 1 2 1.11v-.94h1.09Zm-1-2.82a1.85 1.85 0 0 0-1.83-2 1.87 1.87 0 0 0-1.78 2 1.82 1.82 0 1 0 3.61 0ZM85.05 24.18H84v-4.62h-.59v-1H84V16.4h1.08v2.15h1.06v1h-1.09ZM88.07 21.54a1.78 1.78 0 0 0 1.7 1.87 1.83 1.83 0 0 0 1.68-1.1l.91.52a2.93 2.93 0 0 1-2.61 1.54 2.73 2.73 0 0 1-2.76-3c0-1.73.92-3 2.74-3s2.63 1.32 2.63 3v.17Zm3.21-.82a1.51 1.51 0 0 0-1.55-1.4 1.61 1.61 0 0 0-1.6 1.4ZM98.21 23.3a2.3 2.3 0 0 1-1.91 1.07 2.77 2.77 0 0 1-2.69-3 2.76 2.76 0 0 1 2.64-2.95 2.28 2.28 0 0 1 2 1.11v-5.79h1.08v10.44h-1.12Zm.06-1.94a1.85 1.85 0 0 0-1.83-2 1.87 1.87 0 0 0-1.78 2 1.82 1.82 0 1 0 3.61 0ZM5.46 15.67h1.18v8.23H5.46Zm-.28-1.81a.82.82 0 0 1 .26-.62.89.89 0 0 1 1.24 0 .86.86 0 0 1 0 1.24.92.92 0 0 1-1.26 0 .81.81 0 0 1-.25-.62M14.88 19.83a3.86 3.86 0 0 0-.73-2.5 2.42 2.42 0 0 0-2-.92 2.55 2.55 0 0 0-2.06.89 3.64 3.64 0 0 0-.75 2.43 3.74 3.74 0 0 0 .81 2.52 2.62 2.62 0 0 0 2.11.94 2.32 2.32 0 0 0 1.94-.88 4 4 0 0 0 .69-2.48M8.21 28V15.67h1.1v1.54a3.59 3.59 0 0 1 1.24-1.37 3.09 3.09 0 0 1 1.7-.48 3.54 3.54 0 0 1 2.8 1.22 4.75 4.75 0 0 1 1.06 3.24 4.77 4.77 0 0 1-1 3.23 3.47 3.47 0 0 1-2.76 1.21 3.19 3.19 0 0 1-1.75-.48 3.64 3.64 0 0 1-1.25-1.4V28ZM16.87 22.43l1.13-.62a2 2 0 0 0 2 1.38 1.67 1.67 0 0 0 1.15-.37 1.2 1.2 0 0 0 .43-1c0-.63-.56-1.17-1.68-1.61l-.28-.11a5.33 5.33 0 0 1-1.82-1.05 1.89 1.89 0 0 1-.52-1.34A2.21 2.21 0 0 1 18 16a2.72 2.72 0 0 1 1.92-.67 3.18 3.18 0 0 1 1.7.43 2.57 2.57 0 0 1 1 1.24l-1.05.59a1.62 1.62 0 0 0-.65-.89 1.89 1.89 0 0 0-1.11-.31 1.43 1.43 0 0 0-1 .35 1.14 1.14 0 0 0-.38.87 1 1 0 0 0 .38.84 5 5 0 0 0 1.57.73 4.35 4.35 0 0 1 1.83 1 2.34 2.34 0 0 1 .47 1.54 2.23 2.23 0 0 1-.81 1.81 3.28 3.28 0 0 1-2.17.68 3.33 3.33 0 0 1-1.7-.43 2.69 2.69 0 0 1-1.08-1.35M28.21 23.19a3 3 0 0 0 2.29-1 3.31 3.31 0 0 0 .95-2.39 3.38 3.38 0 0 0-.94-2.42 3.2 3.2 0 0 0-4.59 0 3.34 3.34 0 0 0-.92 2.44 3.3 3.3 0 0 0 .94 2.39 3 3 0 0 0 2.29 1m0 1.07a4.26 4.26 0 0 1-1.69-.35 4.7 4.7 0 0 1-1.46-1 4.18 4.18 0 0 1-.95-1.41 4.59 4.59 0 0 1-.32-1.7 4.49 4.49 0 0 1 .33-1.71 4.29 4.29 0 0 1 1-1.43 4.39 4.39 0 0 1 1.43-1 4.48 4.48 0 0 1 1.7-.34 4.6 4.6 0 0 1 1.73.34 4.31 4.31 0 0 1 1.46 1 4.39 4.39 0 0 1 1 1.44 4.38 4.38 0 0 1-1 4.81 4.53 4.53 0 0 1-3.21 1.35" class="cls-1"/><path d="M32.73 23.32a1 1 0 0 1 1.62-.68.94.94 0 0 1 .27.68.92.92 0 0 1-.94.94A.9.9 0 0 1 33 24a.89.89 0 0 1-.28-.67" class="cls-1"/></svg>
