<svg xmlns="http://www.w3.org/2000/svg" viewBox="0 0 798 176"><style>:root { --primary : #ffffff; }</style><title>Logo</title><desc>Brand Logo for Digital Spy</desc><path style="fill:var(--primary, #000)" d="M0 12h45.4C79.7 12 108 38.7 108 73s-28.4 61-62.6 61H0V12zm32 95.1h7.2c19.1 0 35.5-10.4 35.5-34.1 0-21.8-14.5-34.1-35.1-34.1H32v68.2zm112-87.6c0 9-7.4 16.5-16.5 16.5S111 28.6 111 19.5c0-9 7.4-16.5 16.5-16.5S144 10.4 144 19.5zM142.2 134h-29.4V51.2h29.4V134zm102.8-7.4c0 35.2-17.7 49.4-48.7 49.4-19.3 0-45.2-9.9-47.9-31.7h33.4c.8 2.9 2.9 5 5.6 6.3s5.7 1.9 8.5 1.9c16.1 0 19.2-10.3 19.2-23.8v-3.9c-7.7 7.6-15.6 11.3-26.7 11.3-24.6 0-41.5-18.4-41.5-42.3 0-24.2 17.4-44.9 43.1-44.9 9.8 0 18.8 3.2 24.7 11.5h.3v-8.7h30v74.9zm-67.2-34c0 10.5 7 18.6 19.2 18.6s19.2-8.1 19.2-18.6c0-10.2-7-18.7-19.2-18.7s-19.2 8.6-19.2 18.7zM283 19.5c0 9-7.4 16.5-16.5 16.5S250 28.6 250 19.5c0-9 7.4-16.5 16.5-16.5S283 10.4 283 19.5zM281.2 134h-29.4V51.2h29.4V134zm49.7 1h-30.2V75.7H291V51.2h9.8V26H331v25.2h17v24.5h-17.1V135zm107.1.2h-29.8V126h-.3c-5.2 8.3-15.6 12-25.4 12-24.9 0-42.4-20.7-42.4-44.6 0-23.9 17.2-44.4 42.1-44.4 9.7 0 19.8 3.6 26.1 10.9v-8.1H438v83.4zm-67.2-41.6c0 10.6 7 18.7 19.2 18.7 12.1 0 19.2-8.1 19.2-18.7 0-10.2-7-18.9-19.2-18.9-12.1 0-19.2 8.6-19.2 18.9zM475 134h-30V0h30v134zm101.2-90.5c-5.9-4.8-13.4-8.1-21.2-8.1-5.9 0-13.7 3.4-13.7 10.2 0 7.1 8.7 9.8 14.2 11.6l8.2 2.4c17.2 5 30.4 13.5 30.4 33.2 0 12.1-2.9 24.5-12.7 32.7-9.6 8.1-22.5 11.4-35 11.4-15.5 0-30.7-5.2-43.3-13.9l13.7-25.5c8 6.9 17.5 12.6 28.4 12.6 7.5 0 15.5-3.7 15.5-12.2 0-8.9-12.6-11.9-19.4-13.9-20.1-5.6-33.3-10.8-33.3-34.3 0-24.7 17.8-40.8 42.5-40.8 12.4 0 27.6 3.9 38.6 10l-12.9 24.6zm52.6 17.6h.3c5.4-8.2 15.6-12.1 25.4-12.1 25.1 0 42.4 20.7 42.4 44.4 0 23.9-17.2 43.9-42.1 43.9-9.7 0-19.7-3.4-26.1-10.7V176H599V51.8h29.8v9.3zm-1 32.2c0 10.5 7 18.6 19.2 18.6 12.1 0 19.2-8.1 19.2-18.6 0-10.2-7-18.7-19.2-18.7-12.1-.1-19.2 8.5-19.2 18.7zM686 52h34.2l22.3 42.4L764.3 52H798l-66.9 124h-33.2l28.5-52.6L686 52z"/></svg>